<?xml version="1.0" encoding="utf-8"?>
<!-- Generator: Adobe Illustrator 17.1.0, SVG Export Plug-In . SVG Version: 6.00 Build 0)  -->
<!DOCTYPE svg PUBLIC "-//W3C//DTD SVG 1.1//EN" "http://www.w3.org/Graphics/SVG/1.1/DTD/svg11.dtd">
<svg version="1.1" id="Layer_1" xmlns="http://www.w3.org/2000/svg" xmlns:xlink="http://www.w3.org/1999/xlink" x="0px" y="0px"
	 width="30px" height="30px" viewBox="57.7 1 30 30" enable-background="new 57.7 1 30 30" xml:space="preserve">
<path d="M57.7,27.2V4.8c0-1.1,0.4-2,1.1-2.7C59.6,1.4,60.5,1,61.6,1h22.3c1.1,0,2,0.4,2.7,1.1c0.8,0.8,1.1,1.7,1.1,2.7v22.3
	c0,1.1-0.4,2-1.1,2.7c-0.8,0.8-1.7,1.1-2.7,1.1H61.6c-1.1,0-2-0.4-2.7-1.1C58.1,29.1,57.7,28.2,57.7,27.2z M61.1,26.4
	c0,0.3,0.1,0.6,0.3,0.9c0.2,0.2,0.5,0.3,0.8,0.3h20.9c0.3,0,0.6-0.1,0.8-0.3c0.2-0.2,0.4-0.5,0.4-0.9V13.7h-2.6
	c0.3,0.8,0.4,1.7,0.4,2.6c0,1.6-0.4,3.2-1.2,4.5c-0.8,1.4-2,2.5-3.4,3.3c-1.4,0.8-3,1.2-4.7,1.2c-2.6,0-4.8-0.9-6.6-2.6
	c-1.8-1.8-2.7-3.9-2.7-6.4c0-0.9,0.1-1.7,0.4-2.6h-2.8L61.1,26.4L61.1,26.4z M66.7,15.9c0,1.6,0.6,3,1.8,4.1
	c1.2,1.1,2.6,1.7,4.2,1.7c1.7,0,3.1-0.6,4.3-1.7c1.2-1.1,1.8-2.5,1.8-4.1c0-1.6-0.6-3-1.8-4.1c-1.2-1.1-2.6-1.7-4.3-1.7
	c-1.7,0-3.1,0.6-4.2,1.7C67.3,13,66.7,14.3,66.7,15.9z M78.2,8.9c0,0.4,0.1,0.7,0.4,1c0.3,0.3,0.6,0.4,1,0.4H83c0.4,0,0.7-0.1,1-0.4
	c0.3-0.3,0.4-0.6,0.4-1V5.7c0-0.4-0.1-0.7-0.4-0.9c-0.3-0.3-0.6-0.4-1-0.4h-3.4c-0.4,0-0.7,0.1-1,0.4c-0.3,0.3-0.4,0.6-0.4,0.9V8.9z
	"/>
</svg>
