<?xml version="1.0" encoding="utf-8"?>
<!-- Generator: Adobe Illustrator 17.1.0, SVG Export Plug-In . SVG Version: 6.00 Build 0)  -->
<!DOCTYPE svg PUBLIC "-//W3C//DTD SVG 1.1//EN" "http://www.w3.org/Graphics/SVG/1.1/DTD/svg11.dtd">
<svg version="1.1" id="Layer_1" xmlns="http://www.w3.org/2000/svg" xmlns:xlink="http://www.w3.org/1999/xlink" x="0px" y="0px"
	 width="36.9px" height="30px" viewBox="56.4 1 36.9 30" enable-background="new 56.4 1 36.9 30" xml:space="preserve">
<path d="M56.4,27.6c0.5,0.1,1.2,0.1,1.8,0.1c3.5,0,6.6-1.1,9.4-3.2c-1.6,0-3.1-0.5-4.4-1.5c-1.3-1-2.2-2.2-2.7-3.7
	c0.5,0.1,1,0.1,1.4,0.1c0.7,0,1.3-0.1,2-0.3c-1.8-0.4-3.2-1.2-4.3-2.6c-1.2-1.4-1.7-3-1.7-4.8v-0.1c1.1,0.6,2.2,0.9,3.4,1
	c-1-0.7-1.8-1.6-2.5-2.7s-0.9-2.3-0.9-3.6c0-1.4,0.3-2.6,1-3.8c1.9,2.3,4.2,4.2,6.9,5.6s5.6,2.2,8.7,2.3c-0.1-0.6-0.2-1.2-0.2-1.7
	c0-2.1,0.7-3.9,2.2-5.4C78.1,1.7,79.9,1,82,1c2.2,0,4,0.8,5.5,2.4c1.7-0.3,3.3-0.9,4.8-1.8c-0.6,1.8-1.7,3.2-3.3,4.2
	c1.5-0.2,2.9-0.5,4.4-1.2c-1,1.5-2.3,2.8-3.8,3.9c0,0.2,0,0.5,0,1c0,2-0.3,4.1-0.9,6.1c-0.6,2-1.5,4-2.7,5.8s-2.7,3.5-4.3,4.9
	c-1.7,1.4-3.7,2.6-6,3.4C73.2,30.6,70.7,31,68,31C63.8,31,59.9,29.9,56.4,27.6L56.4,27.6z"/>
</svg>
